<?xml version="1.0" encoding="UTF-8"?>
<svg id="_레이어_2" xmlns="http://www.w3.org/2000/svg" version="1.1" viewBox="0 0 1878.52 274.01" fill="#9FE9DB">
  <style>path{fill:#9FE9DB;}</style>
  <!-- Generator: Adobe Illustrator 30.2.1, SVG Export Plug-In . SVG Version: 2.1.1 Build 1)  -->
  <path d="M104.13,269.2c-17.41-5.62-33.6-17.44-44.47-32.42-8.71-11.97-17.63-31.93-11.97-56.45.11-.46-.23-.91-.7-.91H.76c-.42,0-.77.35-.76.77,1.1,39.93,33.7,86.55,103.24,92.72h.18c1.03,0,1.76-.77,1.91-1.62.15-.81-.15-1.76-1.21-2.13v.04Z"/>
  <path d="M132.49,116.5c-48.55-6.17-70.99-19.89-75.88-46.07-5.73-30.59,20.2-58.13,47.52-66.14.95-.29,1.47-1.29,1.21-2.42-.18-.95-.92-1.84-1.95-1.84h-.22C87.62,0,74.7,2.97,61.83,8.38c-17.52,7.36-28.95,14.62-39.71,30.59-5.6,8.31-9.48,20.8-9.43,31.81-.1,25.19,12.97,42.79,36.18,56.34,20.64,12.04,47.85,17.44,69.26,20.78,42.34,6.61,60.66,23.32,63.2,57.62,2.06,27.69-21.41,53.36-44.51,63.45-1.03.44-1.32,1.47-1.1,2.24.18.77.84,1.47,1.87,1.47h.18c49.71-3.98,81.88-27.64,88.71-65.66,1.37-7.6,1.5-15.43.14-23.03-7.92-44.23-54.55-62.03-92.37-67.27l-1.75-.22Z"/>
  <path d="M136.86,4.05c19.43,4.88,30.18,18.36,35.8,28.83,10.57,19.68,10.83,42.82,6.56,55.97-.16.48.19.95.7.95h42.42c.42,0,.77-.36.76-.78C221.95,40.93,188.51,5.34,137.78,0c-1.18-.11-1.98.84-2.17,1.87-.18,1.1.29,1.98,1.25,2.2v-.04Z"/>
  <path d="M1478.4,270.31c-17.41-5.62-33.6-17.44-44.47-32.42-8.71-11.97-17.63-31.93-11.97-56.45.11-.46-.23-.91-.7-.91h-46.22c-.42,0-.77.35-.76.77,1.1,39.93,33.7,86.55,103.24,92.72h.18c1.03,0,1.76-.77,1.91-1.62.15-.81-.15-1.76-1.21-2.13v.04Z"/>
  <path d="M1506.76,117.61c-48.55-6.17-70.99-19.89-75.88-46.07-5.73-30.59,20.2-58.13,47.52-66.14.95-.29,1.47-1.29,1.21-2.42-.18-.95-.92-1.84-1.95-1.84h-.22c-15.55-.03-28.47,2.94-41.35,8.35-17.52,7.36-28.95,14.62-39.71,30.59-5.6,8.31-9.48,20.8-9.43,31.81-.1,25.19,12.97,42.79,36.18,56.34,20.64,12.04,47.85,17.44,69.26,20.78,42.34,6.61,60.66,23.32,63.2,57.62,2.06,27.69-21.41,53.36-44.51,63.45-1.03.44-1.32,1.47-1.1,2.24.18.77.84,1.47,1.87,1.47h.18c49.71-3.98,81.88-27.64,88.71-65.66,1.37-7.6,1.5-15.43.14-23.03-7.92-44.23-54.55-62.03-92.37-67.27l-1.75-.22Z"/>
  <path d="M1511.13,5.16c19.43,4.88,30.18,18.36,35.8,28.83,10.57,19.68,10.83,42.82,6.56,55.97-.16.48.19.95.7.95h42.42c.42,0,.77-.36.76-.78-1.15-48.08-34.59-83.67-85.32-89-1.18-.11-1.98.84-2.17,1.87-.18,1.1.29,1.98,1.25,2.2v-.04Z"/>
  <path d="M313.92,2.03h-42.23c-.79,0-1.43.64-1.43,1.43v263.81c0,.79.64,1.43,1.43,1.43h180.97c.79,0,1.43-.64,1.43-1.43v-11.09c0-.79-.64-1.43-1.43-1.43h-136.57c-.41,0-.74-.33-.74-.74V3.46c0-.79-.64-1.43-1.43-1.43Z"/>
  <path d="M557.82,268.84c-18.97-8.93-35.02-25.76-46.42-48.63-12.25-24.57-18.74-55.72-18.74-90.03,0-60.63,23.1-106.38,63.36-125.53.96-.44,1.4-1.44,1.07-2.47-.3-1-1.33-1.88-2.66-1.7-33.1,4.94-60.85,19.59-80.22,42.36-20.33,23.87-31.18,55.42-32.21,93.76-1.84,67.75,49.41,128.93,114.28,136.38h.3c1.22,0,2.1-.89,2.36-1.81.3-1-.15-1.96-1.07-2.4l-.04.07Z"/>
  <path d="M679.4,42.87c-19.37-22.77-47.12-37.42-80.22-42.36-1.37-.22-2.36.7-2.66,1.7-.33,1.03.11,1.99,1.07,2.47,53.1,25.24,62.47,89.48,63.36,125.53,1.62,67.82-22.1,118.34-65.16,138.63-.92.44-1.37,1.37-1.11,2.32.26.92,1.14,1.84,2.4,1.84h.22c29.37-2.58,58.78-18.63,80.59-44.06,22.62-26.35,34.61-59.15,33.69-92.32-1.07-38.34-11.88-69.89-32.21-93.76h.04Z"/>
  <path d="M1226.18,2.21c-.61,0-1.16.36-1.4.93l-111.35,262.74v2.29l44.17-.22c.31,0,.59-.2.7-.49l31.1-82.51c.11-.29.39-.49.71-.49h99.5c.65,0,1.22.41,1.44,1.02l29.07,82.68h-.87l45.29.18v-2.32L1260.19,3.17c-.23-.58-.79-.96-1.41-.96h-32.6ZM1193.61,168.24l48.71-139.04c.24-.68,1.21-.67,1.43.02l44.6,139.04c.16.49-.21.99-.72.99h-93.31c-.52,0-.88-.51-.71-1Z"/>
  <path d="M1833.57,4.1l-.08,125.68c0,.43-.35.78-.79.78h-137.69c-.44,0-.79-.35-.79-.78l.08-125.68c0-.43-.35-.78-.79-.78h-43.5c-.44,0-.79.35-.79.78l-.16,264.93c0,.43.35.78.79.78h43.5c.44,0,.79-.35.79-.78l.08-123.71c0-.43.35-.78.79-.78h137.69c.44,0,.79.35.79.78l-.08,123.71c0,.43.35.78.79.78h43.36c.44,0,.79-.35.79-.78l.16-264.93c0-.43-.35-.78-.79-.78h-43.36c-.44,0-.79.35-.79.78Z"/>
  <path d="M1086.4,2.43l-57.73,250.52c-.08.35-.39.59-.75.59h-13.86c-.39,0-.72-.28-.76-.67-1.48-14.92-17.37-177.74-22.7-206.31-2.32-12.52-8.63-22.71-18.74-30.28-8.52-6.39-19.67-10.75-32.29-12.63-1.07-.15-2.03.41-2.44,1.44-.41,1.03-.07,2.1.81,2.7,5.65,3.84,11.96,9.68,14.87,30.65.89,6.31,1.7,14.14,2.58,22.38.55,5.13,1.11,10.49,1.73,15.81,7.83,67.78,15.02,181.5,15.64,191.38.03.4.36.69.76.69h86.15c.34,0,.64-.23.74-.56L1135.99,2.78c.14-.49-.23-.97-.73-.97l-48.1.04c-.36,0-.66.25-.74.59Z"/>
  <path d="M925.48,3.62c-12.58,1.88-23.76,6.28-32.29,12.63-10.11,7.57-16.42,17.77-18.74,30.29-5.33,28.58-21.23,191.51-22.67,206.35-.04.38-.36.66-.74.66h-13.88c-.36,0-.67-.25-.75-.59L778.76,2.39c-.08-.34-.38-.58-.73-.58h-48.19c-.5,0-.86.48-.72.96l75.58,265.38c.09.33.39.56.74.56h86.13c.4,0,.74-.29.76-.7.65-9.98,7.77-123.34,15.63-191.4.63-5.32,1.18-10.67,1.73-15.81.89-8.24,1.7-16.07,2.58-22.38,2.92-21.02,9.19-26.85,14.87-30.66.89-.59,1.22-1.7.81-2.7-.41-1.03-1.37-1.59-2.44-1.44h-.04Z"/>
</svg>